<?xml version="1.0" standalone="no"?>
<!DOCTYPE svg PUBLIC "-//W3C//DTD SVG 20010904//EN"
 "http://www.w3.org/TR/2001/REC-SVG-20010904/DTD/svg10.dtd">
<svg version="1.0" xmlns="http://www.w3.org/2000/svg"
 width="670.000000pt" height="670.000000pt" viewBox="0 0 670.000000 670.000000"
 preserveAspectRatio="xMidYMid meet">
<metadata>
Created by potrace 1.14, written by Peter Selinger 2001-2017
</metadata>
<g transform="translate(0.000000,670.000000) scale(0.100000,-0.100000)"
fill="#000000" stroke="none">
<path d="M3148 5676 c-10 -7 -14 -17 -10 -21 4 -4 -3 -2 -16 4 -18 10 -27 10
-38 0 -11 -9 -14 -9 -14 2 0 11 -2 12 -9 1 -4 -7 -17 -15 -27 -17 -10 -2 -19
-4 -19 -6 0 -1 -10 -3 -22 -4 -14 -1 -20 2 -17 9 3 6 -2 2 -10 -8 -9 -11 -16
-14 -16 -7 0 7 -4 10 -9 7 -5 -4 -11 0 -14 6 -3 9 -7 7 -12 -5 -7 -17 -8 -17
-21 0 -13 17 -14 17 -8 1 6 -18 -6 -24 -20 -11 -12 13 -35 11 -30 -2 3 -7 -2
-12 -13 -12 -35 0 -44 -3 -38 -13 3 -6 -1 -7 -10 -4 -13 5 -13 9 -3 23 10 13
9 13 -7 -1 -16 -15 -17 -19 -4 -35 12 -16 12 -17 -2 -6 -8 7 -25 11 -38 8 -14
-3 -19 0 -15 8 3 7 -5 -1 -18 -17 -17 -20 -27 -25 -32 -18 -4 7 -17 12 -29 12
-16 0 -18 -3 -9 -9 10 -6 8 -10 -8 -14 -16 -4 -20 -2 -16 9 3 9 1 12 -4 9 -6
-3 -10 -14 -11 -23 0 -10 -3 -12 -5 -5 -6 13 -34 6 -34 -9 0 -5 5 -6 12 -2 7
4 8 3 4 -4 -5 -9 -15 -7 -34 5 -25 16 -26 16 -14 1 12 -15 11 -17 -7 -13 -12
2 -21 -1 -21 -7 0 -6 -6 -6 -15 2 -13 11 -14 10 -8 -5 5 -15 3 -17 -11 -12
-14 6 -17 4 -12 -10 6 -14 4 -15 -5 -6 -12 12 -39 7 -39 -9 0 -5 5 -6 10 -3 6
3 10 1 10 -4 0 -14 -13 -14 -28 1 -9 9 -12 9 -12 -1 0 -8 -6 -11 -15 -7 -8 3
-15 1 -15 -5 0 -6 -5 -7 -10 -4 -6 4 -10 3 -9 -2 3 -20 -2 -25 -16 -13 -13 11
-14 10 -9 -4 3 -9 1 -16 -6 -16 -6 0 -8 -6 -4 -12 4 -7 4 -10 -1 -6 -4 4 -15
2 -24 -5 -14 -11 -14 -10 -2 6 8 10 9 17 3 17 -6 0 -14 -9 -17 -20 -6 -18 -19
-24 -53 -23 -10 1 -10 -2 0 -15 10 -12 10 -14 1 -8 -7 4 -13 3 -13 -3 0 -5 -9
-8 -21 -6 -18 4 -19 2 -7 -12 9 -12 9 -15 1 -9 -7 4 -13 3 -13 -3 0 -6 -8 -7
-17 -4 -13 5 -15 2 -10 -11 4 -10 3 -15 -3 -11 -11 7 -42 -8 -41 -18 3 -19 0
-21 -9 -7 -8 12 -10 11 -10 -7 0 -14 -5 -21 -13 -17 -18 7 -51 -31 -41 -48 5
-9 2 -8 -11 2 -10 8 -16 10 -13 5 4 -6 -1 -19 -9 -30 -15 -19 -15 -19 -9 5 5
23 5 23 -7 -3 -7 -15 -16 -24 -20 -21 -4 4 -9 -1 -13 -10 -3 -9 -11 -13 -18
-9 -6 4 -6 0 2 -9 10 -13 10 -18 1 -24 -8 -5 -9 -3 -4 6 5 8 3 11 -6 8 -8 -3
-13 -11 -12 -17 3 -10 -10 -15 -29 -12 -4 0 -5 -5 -2 -13 3 -7 -3 -19 -12 -27
-16 -12 -17 -12 -9 1 8 13 7 13 -8 1 -18 -15 -23 -26 -7 -16 6 3 10 1 10 -4 0
-10 -13 -15 -31 -13 -4 1 -6 -6 -5 -16 0 -9 -4 -17 -11 -17 -15 0 -30 -15 -14
-15 9 0 9 -4 -1 -14 -7 -8 -17 -11 -23 -8 -5 3 -3 -3 5 -13 10 -12 10 -16 2
-11 -18 11 -41 -11 -37 -34 3 -14 -1 -17 -12 -13 -13 5 -15 2 -10 -11 4 -10 3
-15 -3 -11 -6 3 -10 0 -10 -8 0 -8 -10 -22 -22 -31 -13 -9 -16 -14 -8 -11 8 4
4 -3 -9 -14 -14 -13 -18 -21 -10 -21 9 0 10 -3 3 -8 -6 -4 -13 -15 -17 -25 -4
-10 -11 -16 -16 -12 -6 3 -8 -3 -6 -15 2 -11 -1 -22 -6 -25 -5 -4 -6 -11 -3
-17 4 -7 2 -8 -5 -4 -9 6 -9 12 1 24 11 15 11 15 -3 4 -9 -7 -15 -23 -13 -38
2 -21 0 -23 -12 -13 -12 10 -15 10 -12 -2 2 -8 8 -17 13 -21 6 -4 2 -8 -8 -8
-10 0 -16 -4 -13 -9 4 -5 0 -12 -6 -14 -7 -3 -4 -6 7 -6 16 -1 17 -3 5 -10 -8
-6 -18 -7 -24 -4 -5 3 -6 1 -2 -5 4 -6 2 -19 -3 -29 -5 -10 -12 -31 -16 -46
-4 -18 -10 -25 -18 -20 -9 5 -9 3 1 -9 10 -12 9 -18 -3 -28 -9 -7 -13 -23 -10
-37 3 -21 2 -23 -11 -12 -12 10 -13 9 -8 -6 5 -13 4 -16 -5 -11 -14 9 -11 -16
4 -26 6 -5 5 -8 -3 -8 -10 0 -10 -5 -1 -22 11 -21 11 -22 -5 -9 -14 12 -16 12
-9 -4 5 -15 3 -17 -11 -12 -10 4 -15 3 -11 -3 3 -6 14 -10 23 -11 12 0 11 -3
-5 -9 -13 -5 -23 -12 -23 -15 0 -4 5 -3 10 0 6 3 10 -3 10 -13 0 -11 -7 -22
-15 -26 -8 -3 -12 -12 -9 -21 3 -8 11 -12 18 -9 6 3 2 -2 -8 -10 -14 -11 -15
-16 -6 -16 9 0 7 -5 -6 -15 -10 -8 -15 -15 -10 -15 5 0 3 -7 -4 -16 -8 -8 -9
-14 -4 -12 5 2 9 -1 9 -7 0 -5 -4 -9 -10 -7 -5 2 -1 -5 8 -16 14 -15 15 -22 6
-28 -7 -4 -10 -3 -6 3 3 5 0 10 -8 10 -9 0 -11 -5 -6 -11 4 -6 11 -20 15 -30
5 -15 4 -17 -7 -8 -11 9 -13 7 -12 -11 1 -12 -3 -29 -9 -37 -9 -13 -9 -13 5
-3 14 11 16 8 15 -26 -1 -28 -4 -37 -12 -30 -8 6 -10 1 -8 -18 1 -15 8 -29 13
-31 6 -2 11 -8 11 -13 0 -6 -5 -7 -10 -4 -5 3 -10 -1 -10 -10 0 -9 4 -14 8
-11 4 2 8 -6 8 -19 0 -13 -3 -22 -7 -19 -4 2 -9 -3 -13 -11 -3 -9 0 -15 9 -15
8 0 15 -4 15 -10 0 -5 -7 -10 -15 -10 -8 0 -15 -5 -15 -11 0 -5 5 -7 10 -4 5
3 10 1 10 -4 0 -6 -6 -11 -12 -12 -7 0 -4 -4 7 -9 14 -6 15 -9 5 -10 -10 -1
-9 -4 5 -10 18 -8 18 -9 2 -9 -10 -1 -15 -5 -12 -11 3 -5 1 -10 -5 -10 -7 0
-6 -5 2 -14 7 -8 16 -12 20 -9 4 2 5 -2 2 -10 -3 -8 -1 -17 3 -20 8 -5 9 -47
2 -72 -5 -17 13 -78 27 -92 7 -8 10 -21 7 -30 -4 -10 -2 -14 4 -10 7 5 10 -5
7 -28 -1 -20 1 -33 6 -30 5 3 11 1 14 -4 4 -5 1 -13 -5 -17 -8 -5 -9 -3 -4 7
5 8 4 11 -1 6 -5 -5 -9 -12 -9 -15 0 -4 -4 -13 -9 -21 -6 -8 -5 -12 0 -8 5 3
20 -1 34 -9 22 -12 23 -13 5 -14 -19 -1 -19 -1 -2 -14 12 -9 14 -16 8 -21 -6
-3 -11 -11 -11 -17 0 -6 3 -8 7 -4 4 3 12 -6 18 -21 9 -20 9 -30 1 -35 -7 -5
-3 -8 9 -8 17 0 17 -2 5 -10 -12 -8 -12 -10 5 -10 15 0 17 -3 7 -9 -10 -6 -8
-10 9 -14 13 -4 20 -9 16 -13 -4 -4 -1 -14 6 -22 9 -13 9 -14 0 -8 -7 4 -13 3
-13 -2 0 -6 7 -12 15 -16 8 -3 15 -15 15 -26 0 -14 4 -19 13 -14 9 6 9 4 -1
-8 -10 -13 -10 -18 -1 -24 8 -4 9 -3 5 4 -4 7 -5 12 -2 12 3 0 10 -10 17 -21
8 -16 8 -20 -1 -14 -9 6 -9 2 -1 -14 7 -11 16 -21 21 -21 6 0 10 -12 10 -26 0
-24 2 -25 18 -13 9 7 14 10 10 5 -11 -13 11 -48 25 -40 9 5 9 4 0 -6 -9 -10
-5 -18 17 -37 17 -14 27 -30 23 -38 -3 -9 1 -15 11 -15 9 0 16 -7 16 -16 0
-18 23 -44 40 -44 6 0 9 -4 5 -9 -3 -5 1 -16 9 -24 8 -8 12 -18 8 -22 -4 -5 1
-5 10 -2 10 3 20 1 24 -5 4 -7 3 -8 -4 -4 -19 11 -14 -5 6 -21 13 -10 13 -13
2 -11 -9 2 -14 -4 -14 -14 1 -10 -2 -15 -7 -12 -5 3 -9 -3 -9 -12 0 -10 -3
-14 -7 -11 -3 4 -12 -1 -20 -11 -8 -9 -11 -11 -7 -3 5 10 3 12 -5 7 -7 -5 -10
-14 -7 -21 2 -7 -2 -16 -10 -19 -10 -4 -13 -1 -9 7 4 6 -6 -1 -20 -18 -15 -16
-24 -23 -19 -15 6 12 5 13 -8 3 -8 -7 -19 -9 -23 -5 -5 4 -6 0 -2 -9 4 -11 -3
-20 -19 -28 -14 -6 -23 -7 -20 -3 3 5 -1 9 -9 9 -7 0 -12 -8 -10 -19 4 -17
-10 -23 -42 -19 -7 1 -13 -6 -13 -16 0 -15 -2 -16 -10 -3 -6 10 -10 11 -10 3
0 -7 -10 -13 -22 -13 -19 0 -20 -2 -8 -10 8 -5 10 -10 4 -10 -5 0 -15 5 -22
12 -9 9 -12 7 -13 -12 0 -14 -3 -19 -6 -12 -2 6 -9 12 -14 12 -6 0 -7 -4 -4
-10 3 -6 -5 -11 -19 -11 -44 -2 -47 -4 -61 -22 -10 -13 -14 -15 -18 -5 -4 10
-6 10 -6 1 -1 -7 -10 -13 -22 -13 -11 0 -18 -4 -14 -9 3 -6 -9 -8 -27 -6 -18
2 -27 1 -20 -2 20 -8 14 -22 -9 -18 -15 3 -19 0 -15 -11 4 -11 2 -12 -14 -4
-24 13 -40 13 -20 0 13 -8 12 -10 -3 -10 -12 0 -16 -4 -11 -12 6 -10 4 -10 -8
0 -13 10 -18 10 -24 1 -5 -8 -3 -9 6 -4 9 5 11 4 6 -3 -5 -9 -13 -9 -29 0 -20
10 -21 10 -8 -6 12 -14 12 -16 -3 -10 -11 4 -16 1 -16 -11 0 -9 -5 -13 -10
-10 -6 4 -7 11 -4 17 5 7 2 8 -5 4 -7 -5 -10 -15 -6 -23 5 -14 3 -14 -12 -2
-10 8 -14 9 -10 2 8 -12 -30 -40 -46 -35 -5 1 -6 -2 -2 -8 3 -5 -1 -10 -10
-10 -8 0 -18 -7 -22 -16 -3 -9 -19 -30 -34 -47 -23 -25 -26 -33 -16 -46 10
-12 9 -13 -2 -6 -11 6 -13 4 -7 -10 6 -16 4 -16 -10 -4 -16 13 -16 12 -4 -11
12 -22 12 -24 -2 -12 -13 11 -16 10 -14 -5 0 -10 6 -21 11 -25 6 -5 3 -8 -7
-8 -11 0 -15 -5 -12 -15 4 -9 0 -15 -7 -15 -11 0 -11 -2 1 -10 8 -5 11 -12 7
-16 -4 -4 -1 -14 6 -22 11 -13 9 -14 -13 -2 l-25 13 20 -23 c11 -12 19 -31 17
-42 -3 -15 0 -18 10 -12 11 6 11 5 0 -8 -10 -13 -10 -18 -1 -24 8 -5 9 -3 4 6
-5 9 -4 11 4 6 9 -6 9 -11 0 -22 -7 -9 -8 -14 -3 -13 23 4 36 -2 31 -15 -4
-10 0 -13 14 -11 17 3 19 1 9 -10 -9 -11 -7 -12 9 -8 15 4 21 1 21 -11 0 -8
11 -18 25 -22 14 -3 22 -10 19 -15 -3 -5 4 -9 15 -9 12 0 21 -7 21 -15 0 -9 6
-12 15 -8 9 3 22 -2 30 -13 9 -12 14 -14 15 -6 0 7 5 10 10 7 7 -4 8 -11 1
-18 -7 -9 -3 -12 14 -12 13 0 21 3 19 7 -2 4 1 10 7 14 8 4 9 3 5 -4 -4 -7 -1
-12 8 -12 9 0 16 -8 17 -17 0 -15 2 -15 9 2 8 19 9 19 9 -3 1 -13 5 -20 11
-17 6 4 8 11 5 16 -3 5 1 6 9 3 9 -3 13 -11 9 -17 -4 -6 -1 -7 8 -1 22 14 37
13 50 -2 10 -12 15 -12 37 2 20 13 24 13 20 2 -4 -10 4 -14 37 -13 24 0 41 3
39 7 -2 4 0 9 6 13 5 3 10 1 10 -4 0 -6 5 -11 11 -11 5 0 7 6 3 13 -5 9 -4 9
6 0 13 -12 43 -6 35 7 -3 5 5 6 16 3 15 -4 27 1 39 17 13 17 19 20 25 10 5 -8
4 -11 -2 -7 -5 3 -10 -1 -10 -10 0 -13 4 -11 18 6 16 19 28 25 76 35 7 1 16 5
19 9 4 4 12 7 18 7 6 0 4 -5 -4 -10 -25 -16 10 -13 42 4 20 10 29 11 39 2 9
-8 11 -7 6 6 -4 12 -2 15 8 11 8 -3 12 -10 8 -17 -3 -6 -1 -6 8 1 16 16 33 17
23 1 -4 -7 -3 -8 4 -4 7 4 12 14 12 22 0 8 5 14 11 14 5 0 8 -3 6 -7 -3 -5 2
-15 11 -23 14 -13 15 -12 9 4 -7 17 -6 17 10 5 14 -12 16 -12 11 1 -4 12 1 16
18 16 13 0 24 -4 24 -9 0 -4 5 -5 10 -2 6 4 7 11 4 17 -4 7 -2 8 5 4 6 -4 9
-12 6 -17 -4 -5 -1 -9 4 -9 6 0 11 6 11 14 0 8 5 18 12 22 7 4 8 3 4 -4 -4 -7
-2 -12 3 -12 6 0 11 6 11 13 0 8 4 7 10 -3 9 -13 10 -13 10 0 0 12 2 12 9 2 7
-11 9 -11 14 2 8 19 45 16 58 -5 7 -12 9 -11 9 3 0 19 40 13 40 -6 0 -6 5 -4
10 4 6 10 10 11 10 3 0 -7 9 -13 20 -13 12 0 20 -7 20 -17 0 -14 2 -15 9 -4 6
9 11 10 15 2 4 -6 11 -9 16 -6 12 7 41 -5 35 -15 -3 -5 0 -12 6 -16 8 -5 9 -3
4 6 -6 10 -4 12 8 7 9 -3 18 -1 21 6 2 7 5 3 5 -8 1 -17 3 -17 11 -5 8 12 10
12 10 1 0 -8 3 -11 7 -8 3 4 12 2 20 -4 10 -9 13 -8 13 5 0 9 4 16 10 16 5 0
7 -6 4 -14 -7 -17 12 -30 29 -19 21 13 35 12 41 -3 4 -12 10 -12 26 -4 16 9
18 8 14 -5 -4 -10 0 -15 11 -15 9 0 13 5 10 10 -3 6 -1 10 4 10 6 0 11 -10 12
-22 0 -13 3 -17 6 -10 6 16 33 16 33 -1 0 -9 10 -12 30 -9 18 3 30 0 30 -7 0
-6 12 -11 26 -11 14 0 23 -4 19 -10 -3 -5 -1 -10 4 -10 6 0 11 5 11 10 0 6 5
10 11 10 5 0 7 -4 4 -10 -5 -9 16 -15 38 -11 5 1 6 -3 3 -8 -9 -14 20 -21 33
-8 8 8 11 7 11 -4 0 -9 7 -16 15 -16 8 0 15 4 15 9 0 4 -5 8 -12 8 -6 0 -8 3
-4 7 4 5 14 -1 22 -12 12 -16 17 -17 23 -7 7 11 9 10 14 -3 5 -10 3 -14 -5 -9
-7 5 -8 3 -4 -5 6 -9 12 -8 26 4 17 16 19 15 30 -5 11 -21 12 -21 32 -3 20 17
21 17 15 0 -5 -14 -4 -16 10 -8 12 6 21 4 31 -7 7 -10 11 -11 7 -4 -4 8 1 12
14 12 12 0 21 -4 21 -10 0 -5 7 -6 17 -3 12 5 14 3 9 -8 -4 -8 0 -5 8 5 10 13
16 15 16 7 0 -11 3 -11 17 0 13 11 15 11 9 1 -6 -10 -1 -12 22 -9 20 3 35 0
43 -9 14 -17 29 -18 29 -3 0 5 -5 7 -12 3 -6 -4 -8 -3 -5 3 7 12 56 5 75 -10
9 -7 11 -5 6 8 -5 13 -4 16 5 11 6 -4 18 -3 26 4 10 8 15 8 21 -1 4 -8 3 -9
-4 -5 -17 10 -15 1 4 -14 8 -8 14 -9 13 -4 -1 5 -1 16 0 24 1 13 3 13 10 0 6
-8 7 -19 3 -25 -3 -5 2 -4 11 4 20 16 23 26 5 15 -10 -6 -9 -3 0 9 10 12 19
14 37 7 16 -6 27 -6 31 2 5 7 2 8 -7 3 -12 -7 -12 -5 -1 6 11 12 14 12 21 0 7
-11 12 -11 30 1 11 8 18 18 13 23 -4 4 3 3 14 -3 18 -10 23 -8 27 8 3 13 10
18 21 14 9 -3 16 -1 16 6 0 6 5 8 10 5 6 -3 10 -1 10 4 0 6 5 11 11 11 5 0 7
-6 4 -12 -4 -7 1 -4 9 6 15 18 21 15 16 -9 -1 -5 2 -6 7 -2 8 8 9 12 12 40 1
8 4 7 11 -3 5 -8 10 -10 10 -4 0 18 32 26 42 12 6 -11 8 -10 8 0 0 7 4 10 10
7 6 -4 7 1 3 12 -3 10 -3 15 2 11 4 -4 14 -3 22 4 11 8 12 7 7 -6 -5 -12 -2
-15 10 -10 11 4 15 13 11 22 -4 12 -1 11 15 -3 20 -19 21 -19 14 1 -7 17 -6
17 8 6 13 -10 22 -11 37 -2 26 13 27 21 4 14 -14 -4 -14 -3 1 7 15 9 21 9 24
1 2 -7 10 -12 18 -12 9 0 13 4 10 8 -2 4 4 9 15 9 12 1 17 -3 13 -10 -5 -9 -4
-9 6 0 7 6 19 9 26 6 8 -3 14 1 14 8 0 8 6 5 15 -7 15 -19 15 -19 9 1 -6 16
-5 18 7 8 16 -16 33 -17 23 -2 -5 8 -1 8 13 0 11 -6 23 -7 27 -4 3 3 6 1 6 -7
0 -10 4 -10 17 1 11 10 14 10 9 2 -5 -9 1 -13 19 -13 18 0 24 -4 19 -12 -5 -8
0 -7 11 2 10 8 16 10 12 4 -9 -15 31 -32 65 -28 15 1 30 -2 33 -7 3 -5 -1 -6
-9 -3 -9 3 -16 2 -16 -3 0 -5 11 -9 24 -9 15 0 22 4 19 11 -4 5 3 2 14 -8 22
-19 48 -23 37 -6 -4 8 0 8 15 0 12 -7 26 -9 32 -5 6 3 19 -2 30 -12 11 -10 36
-19 55 -20 28 -1 31 1 18 10 -13 10 -13 12 5 12 11 0 18 -4 15 -7 -6 -10 6
-17 37 -23 13 -3 34 -7 47 -10 12 -3 20 -1 18 3 -4 7 14 7 57 2 5 -1 6 -5 3
-9 -3 -5 1 -9 9 -9 8 0 12 4 9 9 -3 4 7 3 23 -3 38 -15 113 -20 113 -9 0 6 5
10 11 10 5 0 8 -4 5 -8 -3 -5 8 -9 25 -10 16 0 27 4 24 9 -4 5 -1 9 4 9 6 0
11 -4 11 -9 0 -5 11 -8 25 -8 15 0 22 4 18 11 -3 6 3 3 14 -7 14 -12 23 -15
28 -7 3 5 11 7 17 4 8 -5 9 -1 5 12 -7 17 -6 18 6 2 14 -18 57 -14 57 5 0 6 7
2 16 -9 11 -13 14 -14 11 -3 -3 9 1 16 9 16 7 0 11 -5 7 -10 -3 -5 4 -6 16 -2
13 4 28 1 37 -6 12 -10 13 -9 7 7 -6 17 -5 18 12 4 17 -14 18 -13 12 4 -6 15
-5 17 6 8 10 -9 17 -8 27 1 10 10 11 9 5 -3 -6 -12 -5 -13 6 -3 7 7 24 13 38
13 18 0 22 3 13 9 -11 7 -10 9 3 14 9 4 13 3 10 -2 -3 -5 -1 -12 5 -16 5 -3
10 -1 10 6 0 7 3 9 7 6 3 -4 12 1 20 11 8 9 12 11 8 4 -7 -13 4 -16 29 -6 9 3
14 10 11 14 -6 10 15 8 33 -4 8 -4 11 -3 10 5 -2 6 3 14 11 17 10 3 11 0 5 -9
-7 -12 -5 -12 9 0 14 11 17 11 17 0 1 -9 4 -8 11 4 6 9 14 15 20 12 5 -4 12 0
15 9 3 8 12 12 19 10 7 -3 16 0 20 6 6 9 10 9 16 -1 7 -11 9 -10 9 3 0 9 5 20
12 24 7 5 8 3 3 -7 -8 -12 -6 -12 8 -1 9 8 20 11 25 8 6 -3 15 1 22 9 7 8 17
12 24 8 6 -4 6 0 -2 9 -10 13 -10 16 0 15 37 -1 62 4 51 11 -8 5 -3 11 13 19
18 8 22 8 17 0 -3 -7 3 -3 14 8 14 13 16 22 9 27 -10 7 15 13 37 9 4 -1 2 9
-4 21 -11 21 -11 22 5 9 14 -12 16 -12 10 3 -3 9 -1 16 6 16 6 0 8 5 5 10 -4
6 -1 18 7 27 11 15 11 16 -4 10 -10 -3 -18 -4 -18 0 0 3 8 12 18 20 9 8 11 12
5 8 -15 -7 -18 11 -3 20 6 4 5 13 -2 25 -7 10 -16 16 -21 13 -5 -3 -4 5 3 17
10 19 8 26 -19 52 -17 17 -31 39 -31 49 0 9 -9 21 -20 24 -11 3 -20 12 -20 18
0 7 -9 18 -20 25 -12 7 -18 17 -15 22 3 5 0 12 -6 16 -8 4 -9 3 -5 -4 4 -7 3
-12 -3 -12 -5 0 -13 9 -16 20 -3 11 -11 20 -16 20 -6 0 -7 -4 -4 -10 3 -5 1
-10 -4 -10 -6 0 -11 9 -11 20 0 18 -17 26 -45 20 -5 -1 -7 2 -3 6 4 4 -2 15
-14 25 -26 23 -29 24 -21 2 6 -15 5 -16 -9 -3 -9 8 -14 18 -12 21 2 4 -3 10
-12 13 -10 4 -13 2 -9 -7 4 -6 -1 -3 -9 7 -12 15 -16 16 -16 5 -1 -8 -7 -3
-15 11 -12 21 -14 22 -15 6 0 -15 -3 -16 -15 -6 -8 7 -12 17 -8 23 3 6 1 7 -6
3 -6 -4 -19 -2 -27 5 -9 8 -18 9 -22 3 -11 -15 -35 -16 -29 -1 4 10 -1 13 -20
9 -20 -4 -24 -2 -18 9 8 12 6 12 -8 0 -14 -11 -17 -11 -17 0 0 11 -2 11 -10
-1 -6 -10 -10 -11 -10 -2 0 6 -12 12 -26 12 -14 0 -22 4 -19 10 3 5 0 7 -8 4
-8 -3 -18 -1 -21 5 -4 6 -13 8 -21 4 -8 -3 -15 -1 -15 5 0 12 -18 11 -39 -2
-10 -6 -12 -5 -7 2 4 7 2 12 -4 12 -6 0 -8 5 -4 12 4 7 3 8 -4 4 -6 -4 -9 -14
-6 -24 3 -9 -1 -6 -9 7 -9 15 -17 20 -21 12 -4 -6 -12 -11 -18 -11 -6 0 -8 3
-5 7 12 11 -37 31 -51 20 -8 -6 -12 -5 -12 3 0 9 -4 9 -17 -1 -9 -8 -14 -9
-11 -4 3 6 -10 18 -29 28 -19 9 -32 13 -28 7 9 -15 -12 -12 -28 4 -10 11 -17
12 -25 4 -8 -8 -10 -5 -7 8 2 11 4 25 4 32 1 7 5 11 10 7 5 -3 12 4 16 15 3
11 14 20 23 20 11 0 13 3 6 8 -8 5 -3 14 15 27 16 12 22 14 16 4 -5 -8 -2 -6
7 4 10 11 16 23 13 27 -3 5 0 12 6 16 8 5 10 2 5 -7 -4 -8 4 -2 17 13 14 15
29 24 33 20 5 -4 2 1 -5 11 -12 15 -12 17 4 11 13 -5 16 -4 11 4 -4 7 -2 12 3
12 6 0 11 6 11 14 0 8 8 21 19 28 10 7 19 15 19 18 3 21 16 39 25 33 7 -4 8 0
3 12 -5 15 -4 16 8 6 12 -10 14 -8 11 14 -1 16 3 29 12 32 8 3 12 12 9 20 -3
8 -1 11 4 8 6 -3 10 -1 10 5 0 6 5 8 11 4 8 -4 8 0 0 15 -10 17 -9 20 4 15 14
-6 19 10 18 54 -1 10 2 10 13 1 10 -9 12 -6 9 11 -3 16 0 20 11 16 9 -3 12 -2
9 5 -4 5 -1 16 5 24 6 8 9 19 5 25 -3 5 -1 10 4 10 6 0 10 6 8 13 -1 6 4 11
11 9 10 -2 10 2 1 19 -9 17 -8 20 2 14 9 -6 11 -3 6 9 -4 9 -3 15 1 13 4 -3
14 2 22 11 13 14 12 15 -2 10 -17 -7 -19 15 -3 29 4 4 5 2 0 -6 -6 -10 -4 -12
4 -7 9 6 9 11 -1 24 -11 13 -10 15 4 9 12 -4 15 -2 11 9 -4 10 0 13 13 8 18
-5 18 -5 1 6 -19 12 -13 35 6 23 9 -5 9 -3 0 8 -10 12 -9 20 4 39 16 22 16 23
-3 17 -19 -7 -19 -7 0 8 10 8 24 12 30 9 6 -3 0 3 -14 15 l-25 20 25 -5 c20
-5 22 -3 10 5 -13 10 -13 11 0 11 12 0 12 2 2 9 -11 6 -10 10 4 15 13 5 14 10
6 18 -8 8 -7 15 6 25 16 14 16 14 -3 9 -18 -5 -18 -5 -3 7 15 12 15 14 0 25
-9 7 -11 10 -3 6 10 -5 13 -3 8 9 -3 9 0 23 8 30 8 9 10 19 4 28 -14 22 -11
35 4 15 12 -16 13 -16 13 3 0 12 -4 21 -8 21 -4 0 -8 5 -8 11 0 5 3 8 8 6 4
-3 8 12 8 34 1 22 -4 39 -10 39 -6 0 -4 5 4 10 10 6 11 10 3 10 -7 0 -13 5
-13 11 0 5 4 8 8 5 5 -3 9 1 9 9 0 8 -4 15 -9 15 -5 0 -6 5 -3 10 4 6 11 7 17
4 7 -4 8 -2 4 5 -4 6 -11 9 -16 6 -4 -3 -7 6 -6 19 0 13 4 22 9 19 15 -9 7 10
-10 22 -13 9 -13 14 -3 20 9 5 11 4 6 -3 -4 -7 -2 -12 3 -12 15 0 14 30 -1 31
-7 0 -4 4 7 9 l20 9 -20 0 c-17 1 -17 3 -5 11 12 8 12 10 -5 11 l-20 0 20 9
c11 5 14 9 6 9 -11 1 -11 4 0 18 8 9 10 14 4 11 -5 -3 -17 1 -25 10 -13 14
-12 15 2 10 24 -10 30 3 10 19 -10 9 -11 11 -2 7 13 -7 13 -5 2 8 -10 13 -10
17 0 22 7 3 2 4 -12 2 l-25 -5 25 19 c23 18 24 19 3 15 -15 -2 -20 1 -18 13 2
9 4 17 5 17 1 0 3 8 5 18 2 9 0 15 -5 12 -4 -3 -10 2 -14 10 -3 8 3 19 12 24
15 9 15 10 -3 11 -17 0 -17 2 -5 10 12 8 12 10 -5 10 -11 0 -15 4 -10 8 14 10
17 32 5 32 -5 0 -10 -5 -10 -12 0 -6 -3 -8 -7 -4 -5 4 1 15 12 23 20 15 20 15
-3 10 -17 -4 -21 -2 -13 7 6 7 6 17 1 26 -5 9 -5 19 2 28 9 10 6 14 -11 19
-17 4 -19 8 -9 14 10 6 8 9 -7 9 -12 0 -16 3 -9 8 15 9 14 41 -1 36 -7 -3 -10
6 -9 26 2 27 0 29 -14 18 -10 -7 -14 -8 -10 -4 4 5 2 16 -5 24 -9 13 -9 14 1
8 20 -12 14 21 -6 36 -10 7 -22 20 -27 28 -8 13 -7 13 8 1 15 -12 17 -12 11 3
-3 9 -12 16 -20 16 -8 0 -14 7 -14 16 0 9 5 12 12 8 6 -4 4 3 -5 16 -9 14 -27
30 -39 38 l-23 13 24 -7 c19 -5 22 -4 12 7 -36 43 -45 53 -36 39 9 -13 8 -13
-8 -1 -14 11 -15 16 -5 29 10 13 10 14 1 8 -9 -5 -13 -1 -13 12 0 12 -9 22
-21 25 -12 3 -18 10 -14 16 3 6 -6 23 -22 37 -15 15 -19 20 -9 13 18 -13 18
-13 6 8 -8 12 -16 21 -19 21 -19 -2 -22 4 -11 17 11 13 10 14 -5 8 -14 -5 -17
-3 -13 9 4 9 1 15 -5 14 -7 0 -13 3 -14 8 -1 5 -12 14 -25 20 -13 7 -22 19
-20 29 2 10 -4 17 -13 17 -8 0 -15 5 -15 11 0 12 -30 44 -30 32 -1 -9 -24 28
-25 39 0 3 -13 17 -30 29 -16 13 -25 17 -20 10 6 -10 4 -12 -4 -7 -7 5 -10 14
-7 22 3 7 0 16 -6 20 -7 5 -9 2 -4 -7 4 -8 -1 -4 -10 9 -9 12 -22 22 -29 22
-7 0 -23 13 -36 29 -13 16 -27 27 -31 25 -4 -3 -8 4 -8 15 0 12 -5 21 -11 21
-5 0 -7 -6 -3 -12 3 -7 -5 0 -20 16 -14 16 -26 33 -26 38 0 5 -4 6 -10 3 -5
-3 -10 -1 -10 6 0 7 -3 9 -6 6 -4 -4 -18 6 -32 21 -13 15 -21 21 -17 13 6 -10
4 -12 -4 -7 -7 5 -10 14 -7 21 3 8 -2 11 -15 8 -14 -4 -19 0 -19 13 0 16 -2
17 -10 4 -8 -13 -10 -12 -10 3 0 9 -5 17 -11 17 -5 0 -7 6 -3 13 5 7 0 6 -11
-3 -10 -8 -16 -10 -12 -4 4 7 -2 14 -14 17 -13 4 -18 10 -14 17 5 9 1 10 -15
5 -14 -4 -20 -3 -16 3 7 12 -22 25 -36 15 -7 -3 -8 -1 -4 5 4 7 1 12 -9 12
-10 0 -13 5 -9 13 5 8 2 8 -9 -2 -12 -9 -17 -10 -17 -2 0 7 -4 10 -9 7 -5 -3
-11 3 -14 14 -3 13 -10 18 -21 14 -9 -3 -16 -2 -16 4 0 5 -7 13 -16 16 -12 5
-14 3 -8 -7 5 -7 2 -6 -6 4 -22 23 -59 41 -70 34 -6 -3 -22 7 -37 22 -14 15
-22 21 -18 13 8 -13 7 -13 -10 0 -10 8 -26 14 -37 12 -10 -2 -18 2 -18 9 0 10
-3 10 -12 1 -15 -15 -28 -15 -28 -1 0 5 6 7 13 3 7 -4 9 -3 4 2 -5 5 -12 9
-15 9 -4 0 -14 4 -22 10 -13 8 -13 7 -1 -8 12 -15 12 -17 -3 -11 -9 3 -16 11
-16 18 0 6 -5 4 -10 -4 -8 -12 -10 -12 -11 5 l0 20 -9 -20 c-7 -17 -9 -17 -9
-2 -1 9 -6 17 -12 17 -5 0 -7 -5 -3 -11 4 -8 0 -8 -15 0 -11 7 -21 14 -21 17
0 3 5 2 12 -2 7 -4 8 -3 4 5 -4 6 -11 9 -16 6 -5 -3 -11 -1 -15 4 -3 6 -13 7
-21 4 -13 -5 -13 -7 -2 -14 9 -6 9 -9 1 -9 -6 0 -19 10 -27 22 -11 16 -16 18
-16 7 0 -8 3 -19 8 -25 4 -5 -1 -1 -10 9 -10 11 -16 22 -13 26 2 4 -2 8 -10 8
-12 0 -12 -3 -2 -15 10 -13 9 -14 -8 -6 -11 5 -32 9 -47 8 -25 -1 -33 6 -29
29 1 4 -9 1 -22 -8 -13 -8 -27 -12 -31 -8 -4 5 -11 8 -14 8 -20 2 -52 18 -52
26 0 6 -5 7 -10 4 -6 -4 -7 -11 -4 -17 4 -7 2 -8 -5 -4 -6 4 -9 11 -7 15 3 4
-5 13 -17 21 -20 12 -21 12 -8 -4 21 -25 6 -31 -20 -7 -23 21 -40 20 -35 -2 1
-7 1 -9 -1 -4 -3 4 -8 5 -12 3 -4 -3 -13 0 -21 6 -12 8 -12 9 3 4 9 -3 17 -1
17 4 0 15 -117 12 -123 -2 -4 -10 -6 -10 -6 0 -1 6 -6 12 -12 12 -5 0 -7 -4
-4 -10 3 -5 1 -10 -4 -10 -6 0 -11 4 -11 8 0 5 -15 9 -32 10 -27 1 -30 -1 -15
-9 9 -6 21 -8 25 -5 5 3 9 -1 9 -9 0 -10 -5 -11 -18 -4 -25 13 -69 11 -69 -3
0 -6 -7 -3 -15 8 -8 10 -15 15 -15 9 0 -5 -5 -3 -11 5 -8 11 -9 9 -3 -10 6
-22 5 -23 -9 -11 -9 7 -14 17 -11 22 7 12 2 11 -18 -5z m383 -13 c13 -16 12
-17 -3 -4 -10 7 -18 15 -18 17 0 8 8 3 21 -13z m377 -88 c-3 -3 -9 2 -12 12
-6 14 -5 15 5 6 7 -7 10 -15 7 -18z m1017 -603 c-3 -3 -11 0 -18 7 -9 10 -8
11 6 5 10 -3 15 -9 12 -12z m-3530 -861 c3 -5 2 -12 -3 -15 -5 -3 -9 1 -9 9 0
17 3 19 12 6z m-15 -491 c0 -5 -5 -10 -11 -10 -5 0 -7 5 -4 10 3 6 8 10 11 10
2 0 4 -4 4 -10z m4077 -35 c0 -8 -4 -12 -9 -9 -5 3 -6 10 -3 15 9 13 12 11 12
-6z m-4052 -125 c3 -5 1 -10 -4 -10 -6 0 -11 5 -11 10 0 6 2 10 4 10 3 0 8 -4
11 -10z m3589 -1116 c3 -8 2 -12 -4 -9 -6 3 -10 10 -10 16 0 14 7 11 14 -7z
m91 -14 c3 -5 1 -10 -4 -10 -6 0 -11 5 -11 10 0 6 2 10 4 10 3 0 8 -4 11 -10z
m813 -435 c-3 -3 -9 2 -12 12 -6 14 -5 15 5 6 7 -7 10 -15 7 -18z m9 -70 c-15
-16 -19 -13 -11 9 3 9 10 13 15 10 5 -3 3 -11 -4 -19z m-4357 -185 c0 -5 -2
-10 -4 -10 -3 0 -8 5 -11 10 -3 6 -1 10 4 10 6 0 11 -4 11 -10z m2185 -19 c-9
-8 -36 -10 -30 -2 2 4 11 8 20 8 8 0 13 -3 10 -6z m555 -87 c0 -8 -19 -13 -24
-6 -3 5 1 9 9 9 8 0 15 -2 15 -3z m217 -66 c-3 -8 -6 -5 -6 6 -1 11 2 17 5 13
3 -3 4 -12 1 -19z m144 -15 c13 -16 12 -17 -3 -4 -17 13 -22 21 -14 21 2 0 10
-8 17 -17z m409 -28 c0 -12 -19 -12 -23 0 -4 9 -1 12 9 8 7 -3 14 -7 14 -8z"/>
<path d="M3033 5665 c0 -8 4 -12 9 -9 5 3 6 10 3 15 -9 13 -12 11 -12 -6z"/>
<path d="M3010 5661 c0 -7 -4 -9 -10 -6 -5 3 -10 1 -10 -4 0 -6 4 -11 9 -11
13 0 25 20 17 27 -3 4 -6 1 -6 -6z"/>
<path d="M3675 5640 c3 -5 8 -10 11 -10 2 0 4 5 4 10 0 6 -5 10 -11 10 -5 0
-7 -4 -4 -10z"/>
<path d="M3746 5628 c3 -4 9 -8 15 -8 5 0 9 4 9 8 0 5 -7 9 -15 9 -8 0 -12 -4
-9 -9z"/>
<path d="M2667 5583 c-4 -3 -7 -11 -7 -17 0 -6 5 -5 12 2 6 6 9 14 7 17 -3 3
-9 2 -12 -2z"/>
<path d="M5027 4859 c7 -7 15 -10 18 -7 3 3 -2 9 -12 12 -14 6 -15 5 -6 -5z"/>
<path d="M1357 3564 c7 -3 9 -13 6 -22 -4 -14 -3 -14 5 -2 12 16 7 30 -11 29
-9 0 -9 -2 0 -5z"/>
<path d="M5445 3440 c-3 -5 -1 -10 4 -10 6 0 11 5 11 10 0 6 -2 10 -4 10 -3 0
-8 -4 -11 -10z"/>
<path d="M1380 3396 c0 -2 7 -7 16 -10 8 -3 12 -2 9 4 -6 10 -25 14 -25 6z"/>
<path d="M1660 2766 c0 -2 8 -10 18 -17 15 -13 16 -12 3 4 -13 16 -21 21 -21
13z"/>
<path d="M5150 2679 c0 -5 5 -7 10 -4 6 3 10 8 10 11 0 2 -4 4 -10 4 -5 0 -10
-5 -10 -11z"/>
<path d="M2095 1620 c3 -5 8 -10 11 -10 2 0 4 5 4 10 0 6 -5 10 -11 10 -5 0
-7 -4 -4 -10z"/>
<path d="M2289 1563 c-13 -16 -12 -17 4 -4 9 7 17 15 17 17 0 8 -8 3 -21 -13z"/>
<path d="M1676 1552 c-3 -5 1 -9 9 -9 8 0 12 4 9 9 -3 4 -7 8 -9 8 -2 0 -6 -4
-9 -8z"/>
<path d="M1635 1540 c-3 -5 -1 -10 4 -10 6 0 11 5 11 10 0 6 -2 10 -4 10 -3 0
-8 -4 -11 -10z"/>
<path d="M2480 1536 c0 -2 8 -10 18 -17 15 -13 16 -12 3 4 -13 16 -21 21 -21
13z"/>
<path d="M4450 1476 c0 -2 7 -9 15 -16 13 -11 14 -10 9 4 -5 14 -24 23 -24 12z"/>
<path d="M4706 1423 c-6 -14 -5 -15 5 -6 7 7 10 15 7 18 -3 3 -9 -2 -12 -12z"/>
</g>
</svg>
